<?xml version="1.0" encoding="utf-8"?>
<!-- Generator: Adobe Illustrator 24.2.0, SVG Export Plug-In . SVG Version: 6.00 Build 0)  -->
<svg version="1.1" id="Livello_1" xmlns="http://www.w3.org/2000/svg" xmlns:xlink="http://www.w3.org/1999/xlink" x="0px" y="0px"
	 viewBox="0 0 21 23" style="enable-background:new 0 0 21 23;" xml:space="preserve">
<style type="text/css">
	.st0{fill:#302F33;}
</style>
<path class="st0" d="M19.2,4.2H1.8C0.8,4.2,0,5,0,6V17c0,1,0.8,1.8,1.8,1.8h17.4c1,0,1.8-0.8,1.8-1.8V6C21,5,20.2,4.2,19.2,4.2z
	 M19.8,6.4v10.3l-5.1-5.1L19.8,6.4z M7.3,12.4l1.9,1.9c0.3,0.3,0.8,0.5,1.4,0.5c0.5,0,1-0.2,1.4-0.5l1.9-1.9l5.2,5.2H2.1L7.3,12.4z
	 M10.5,13.5c-0.2,0-0.4-0.1-0.6-0.2L2.1,5.4h16.9l-7.9,7.9C10.9,13.4,10.7,13.5,10.5,13.5z M6.4,11.5l-5.1,5.1V6.4L6.4,11.5z"/>
</svg>
